<?xml version="1.0" encoding="UTF-8"?>
<svg id="_レイヤー_2" data-name="レイヤー 2" xmlns="http://www.w3.org/2000/svg" viewBox="0 0 45.04 65.42">
  <defs>
    <style>
      .cls-1 {
        fill: #595857;
        stroke-width: 0px;
      }
    </style>
  </defs>
  <g id="_レイヤー_1-2" data-name="レイヤー 1">
    <path class="cls-1" d="M30.96.49h-1.76c-5.02,0-10.06,1.99-14.99,5.9V0H0v65.03l.16.08c.06.03.09.05.11.07v.23h13.94v-28.86c0-8.28,1.23-13.73,3.77-16.67,2.83-3.28,6.56-4.95,11.09-4.95h1.08c3.46,0,6.8,1.16,10.86,3.78l.23.14.16-.21c.36-.48,1.93-5.62,3.65-13.81v-.31l-.15-.09C40.18,1.82,35.49.49,30.96.49Z"/>
  </g>
</svg>