<?xml version="1.0" encoding="UTF-8"?>
<svg id="_レイヤー_2" data-name="レイヤー 2" xmlns="http://www.w3.org/2000/svg" viewBox="0 0 66.78 100.68">
  <defs>
    <style>
      .cls-1 {
        fill: #595857;
        stroke-width: 0px;
      }
    </style>
  </defs>
  <g id="_レイヤー_1-2" data-name="レイヤー 1">
    <path class="cls-1" d="M66.51,0h-13.9c-.09.09-.18.14-.27.14v41.71c-5.32-5.77-11.72-8.66-19.2-8.66-8.12,0-15.33,2.66-21.64,7.98C3.83,48.39,0,56.99,0,67c0,8.03,2.57,15.28,7.71,21.77,6.94,7.94,15.33,11.9,25.16,11.9,7.93,0,14.42-2.75,19.47-8.25v6.49l.27.14h13.9c.09-.09.18-.14.27-.14V.14c-.09-.09-.18-.14-.27-.14ZM45.68,81.79c-4.01,3.4-8.11,5.11-12.3,5.11h-1.31c-3.05,0-6.2-1-9.42-3.01-5.94-4.45-8.9-10.08-8.9-16.89,0-4.45,1.39-8.68,4.19-12.7,4.27-4.8,9.03-7.2,14.27-7.2h1.05c3.14,0,6.32.96,9.55,2.88,5.93,4.37,8.9,10.04,8.9,17.01,0,5.67-2.01,10.6-6.02,14.79Z"/>
  </g>
</svg>