<?xml version="1.0" encoding="UTF-8"?>
<svg id="_レイヤー_2" data-name="レイヤー 2" xmlns="http://www.w3.org/2000/svg" viewBox="0 0 66 120">
  <defs>
    <style>
      .cls-1 {
        fill: none;
      }

      .cls-1, .cls-2 {
        stroke-width: 0px;
      }

      .cls-2 {
        fill: #585757;
      }
    </style>
  </defs>
  <g id="_レイヤー_1-2" data-name="レイヤー 1">
    <g>
      <path class="cls-2" d="M65.75,14.04h-12.66c-.08.08-.17.12-.25.12v37.99c-4.85-5.26-10.68-7.88-17.49-7.88-7.39,0-13.96,2.42-19.71,7.27-6.98,6.57-10.47,14.41-10.47,23.53,0,7.31,2.34,13.92,7.02,19.83,6.32,7.23,13.96,10.84,22.91,10.84,7.23,0,13.14-2.5,17.74-7.51v5.91l.25.12h12.66c.08-.08.17-.12.25-.12V14.16c-.08-.08-.17-.12-.25-.12ZM46.78,88.53c-3.66,3.1-7.39,4.65-11.21,4.65h-1.19c-2.78,0-5.64-.91-8.58-2.74-5.41-4.05-8.11-9.18-8.11-15.38,0-4.05,1.27-7.91,3.81-11.56,3.89-4.37,8.23-6.56,12.99-6.56h.95c2.86,0,5.76.88,8.7,2.62,5.4,3.98,8.11,9.14,8.11,15.5,0,5.17-1.83,9.66-5.48,13.47Z"/>
      <rect class="cls-1" width="66" height="120"/>
    </g>
  </g>
</svg>