<svg version="1.1" id="logo" xmlns="http://www.w3.org/2000/svg" xmlns:xlink="http://www.w3.org/1999/xlink" x="0px" y="0px"
	 viewBox="0 0 1600 400">
	<g id="logo-aralead">
		<polygon id="logo-aralead-01" fill="#006666" points="127.854,218.939 166.366,140.812 203.919,218.939 223.87,260.753 
			269.108,353.382 317.731,353.382 166.366,41.367 15,353.382 62.327,353.382 230.627,276.518 125.433,252.104 139.42,274.728 
			89.721,297.786 107.969,260.753 	"/>
		<path id="logo-aralead-02" fill="#006666" d="M425.592,121.284c-17.653,0-34.402,5.713-45.423,20.305v-17.423h-43.827v229.216
			h43.827v-88.964c0-24.546-0.366-52.404,0.206-61.181c1.665-25.583,22.023-43.318,43.311-43.318c11.783,0,18.78,5.366,18.78,5.366
			l22.93-29.437C465.395,135.847,447.666,121.284,425.592,121.284z"/>
		<path id="logo-aralead-03" fill="#006666" d="M655.415,150.563c-20.988-21.045-47.687-32.058-78.254-32.058c-65.088,0-118.04,53.679-118.04,119.661
				c0,66.428,52.592,120.467,117.233,120.467c30.358,0,56.87-10.364,79.061-30.848v25.597h41.81V124.166h-41.81V150.563z
				 M657.432,239.779c0,51.353-40.312,79.061-78.247,79.061c-42.48,0-77.037-35.832-77.037-79.867
				c0-44.331,34.017-79.054,77.44-79.054C623.97,159.919,657.432,194.253,657.432,239.779z"/>
		<rect id="logo-aralead-04" x="740.641" y="41.367" fill="#006666" width="42.213" height="312.015"/>
		<path id="logo-aralead-05" fill="#006666" d="M1007.49,271.08c-15.118,24.805-34.752,47.759-75.697,47.759
			c-39.073,0-68.761-29.206-72.939-70.468h192.686l-0.086-7.462c-0.821-72.067-49.524-122.405-118.451-122.405
			c-73.637,0-117.637,61.458-117.637,120.871c0,57.814,41.795,119.257,119.257,119.257c49.092,0,85.687-22.961,108.749-68.243
			l3.306-6.482c3.818-9.152,4.862-18.741,4.862-18.741h-40.449L1007.49,271.08z M933.406,159.918
			c34.427,0,59.139,17.473,70.454,49.466H864.026C876.313,176.549,899.613,159.918,933.406,159.918z"/>
		<path id="logo-aralead-06" fill="#006666" d="M1274.598,150.563c-20.988-21.045-47.687-32.058-78.254-32.058c-65.088,0-118.04,53.679-118.04,119.661
				c0,66.428,52.592,120.467,117.233,120.467c30.358,0,56.877-10.364,79.061-30.848v25.597h41.81V124.166h-41.81V150.563z
				 M1276.615,239.779c0,51.353-40.312,79.061-78.247,79.061c-42.48,0-77.037-35.832-77.037-79.867
				c0-44.331,34.017-79.054,77.44-79.054C1243.153,159.919,1276.615,194.253,1276.615,239.779z"/>
		<path id="logo-aralead-07" fill="#006666" d="M1542.787,41.367v109.196c-20.988-21.045-47.687-32.058-78.247-32.058
			c-65.088,0-118.047,53.679-118.047,119.661c0,66.428,52.592,120.467,117.234,120.467c30.358,0,56.877-10.364,79.061-30.848v25.597
			H1585V41.367H1542.787z M1466.557,318.84c-42.48,0-77.037-35.832-77.037-79.867c0-44.331,34.017-79.054,77.44-79.054
			c44.151,0,77.44,34.334,77.44,79.86C1544.4,291.132,1504.29,318.84,1466.557,318.84z"/>
	</g>
</svg>
