<?xml version="1.0" encoding="UTF-8"?>
<svg id="_レイヤー_2" data-name="レイヤー 2" xmlns="http://www.w3.org/2000/svg" viewBox="0 0 62.67 68.14">
  <defs>
    <style>
      .cls-1 {
        fill: #595857;
        stroke-width: 0px;
      }
    </style>
  </defs>
  <g id="_レイヤー_1-2" data-name="レイヤー 1">
    <path class="cls-1" d="M51.62,8.05C45.46,2.71,38.97,0,32.35,0h-1.89c-6.08,0-12.19,2.34-18.19,6.97C4.15,14.28.02,23.34,0,33.9h0s0,.08,0,.08v.27s.01.09.01.14c0,1.71.16,3.38.39,5.01.05.32.09.65.15.97.58,3.49,1.66,6.79,3.24,9.88.12.23.24.46.36.7.6,1.11,1.26,2.19,1.99,3.25.29.44.51.91.82,1.34.52.64,1.07,1.22,1.61,1.81,1.13,1.32,2.34,2.6,3.69,3.82.76.58,1.52,1.02,2.28,1.53.41.29.82.57,1.24.84.56.35,1.12.69,1.67,1,.97.54,1.96,1.01,2.96,1.42,1.05.44,2.1.78,3.16,1.08.33.09.65.2.98.28,1.02.25,2.04.43,3.06.55.1.01.2.02.29.03.85.09,1.69.24,2.54.24h1.89c.74,0,1.49-.16,2.24-.23.16-.02.32-.03.48-.05,3.05-.34,6.09-1.24,9.07-2.71.1-.05.2-.1.3-.16,2.53-1.28,5.02-2.83,7.42-4.91,3-2.91,5.07-5.48,6.16-7.66.39-.69.66-1.41,1-2.11l-13.03-5.65c-.88,1.75-1.99,3.47-3.62,5.15-3.26,2.83-5.88,4.28-11.1,4.28-3.04,0-5.6-.7-7.84-1.96-.42-.26-.86-.48-1.27-.79-.76-.54-1.46-1.19-2.13-1.91-.23-.23-.47-.4-.69-.64-.98-1.18-1.86-2.55-2.66-4.14-.15-.45-.43-1.11-.84-1.93-.64-1.76-.97-3.08-1.27-4.39h47.67c.35,0,.44-.2.44-2.19v-2.03c0-6.42-1.65-12.62-4.9-18.39-1.09-2.18-3.16-4.76-6.16-7.66ZM15.84,25.42c.41-.83.69-1.48.84-1.93,3.22-6.44,7.86-9.44,14.6-9.44,5.22,0,7.84,1.45,11.1,4.28,2.23,2.31,3.73,4.63,4.57,7.1H15.84Z"/>
  </g>
</svg>