<?xml version="1.0" encoding="UTF-8"?>
<svg id="_レイヤー_2" data-name="レイヤー 2" xmlns="http://www.w3.org/2000/svg" viewBox="0 0 69 120">
  <defs>
    <style>
      .cls-1 {
        fill: none;
      }

      .cls-1, .cls-2 {
        stroke-width: 0px;
      }

      .cls-2 {
        fill: #585757;
      }
    </style>
  </defs>
  <g id="_レイヤー_1-2" data-name="レイヤー 1">
    <g>
      <path class="cls-2" d="M50.78,51.33c-5.61-4.87-11.51-7.33-17.55-7.33h-1.72c-5.54,0-11.11,2.13-16.56,6.35-7.4,6.66-11.15,14.91-11.17,24.52h0s0,.07,0,.07v.25s0,.08.01.13c0,1.56.15,3.08.35,4.56.04.3.09.59.14.88.53,3.18,1.51,6.18,2.95,9,.11.21.22.42.33.63.54,1.01,1.15,2,1.81,2.96.27.4.46.82.75,1.22.48.59.98,1.11,1.47,1.65,1.03,1.2,2.13,2.37,3.36,3.48.69.53,1.38.93,2.07,1.4.37.26.75.52,1.13.76.51.31,1.02.63,1.53.91.88.49,1.78.92,2.7,1.29.96.4,1.92.71,2.88.98.3.08.59.19.9.26.93.23,1.86.39,2.79.5.09.01.18.02.27.03.77.08,1.54.22,2.31.22h1.72c.68,0,1.36-.15,2.04-.21.15-.02.29-.03.44-.04,2.78-.31,5.54-1.13,8.27-2.47.09-.05.18-.1.28-.14,2.3-1.16,4.57-2.58,6.75-4.47,2.73-2.65,4.62-4.99,5.61-6.98.35-.63.6-1.29.91-1.93l-11.87-5.15c-.8,1.6-1.81,3.16-3.3,4.69-2.97,2.58-5.36,3.89-10.11,3.89-2.77,0-5.1-.64-7.14-1.79-.39-.24-.78-.44-1.16-.72-.69-.49-1.33-1.09-1.94-1.74-.21-.21-.43-.37-.63-.58-.89-1.07-1.7-2.32-2.42-3.77-.13-.41-.39-1.01-.76-1.76-.59-1.6-.89-2.8-1.16-4h43.42c.32,0,.4-.18.4-2v-1.85c0-5.85-1.5-11.49-4.46-16.75-.99-1.99-2.88-4.33-5.61-6.98ZM18.2,67.15c.37-.75.63-1.35.76-1.76,2.93-5.86,7.16-8.6,13.3-8.6,4.75,0,7.14,1.32,10.11,3.89,2.03,2.1,3.4,4.22,4.17,6.46h-28.34Z"/>
      <rect class="cls-1" width="69" height="120"/>
    </g>
  </g>
</svg>