<?xml version="1.0" encoding="UTF-8"?>
<svg id="_レイヤー_2" data-name="レイヤー 2" xmlns="http://www.w3.org/2000/svg" viewBox="0 0 57 120">
  <defs>
    <style>
      .cls-1 {
        fill: none;
      }

      .cls-1, .cls-2 {
        stroke-width: 0px;
      }

      .cls-2 {
        fill: #585757;
      }
    </style>
  </defs>
  <g id="_レイヤー_1-2" data-name="レイヤー 1">
    <g>
      <path class="cls-2" d="M39.79,45.38h-1.6c-4.57,0-9.17,1.81-13.66,5.38v-5.82h-12.94v59.23l.14.07c.05.03.09.05.1.06v.21h12.7v-26.29c0-7.54,1.12-12.5,3.43-15.18,2.58-2.99,5.98-4.51,10.1-4.51h.99c3.15,0,6.2,1.06,9.89,3.44l.21.13.15-.19c.33-.44,1.76-5.12,3.33-12.58v-.28l-.14-.08c-4.3-2.39-8.57-3.6-12.69-3.6Z"/>
      <rect class="cls-1" width="57" height="120"/>
    </g>
  </g>
</svg>