<?xml version="1.0" encoding="UTF-8"?>
<svg id="_レイヤー_2" data-name="レイヤー 2" xmlns="http://www.w3.org/2000/svg" viewBox="0 0 480 186">
  <defs>
    <style>
      .cls-1 {
        fill: none;
      }

      .cls-1, .cls-2 {
        stroke-width: 0px;
      }

      .cls-2 {
        fill: #585757;
      }
    </style>
  </defs>
  <g id="_レイヤー_1-2" data-name="レイヤー 1">
    <g>
      <path class="cls-2" d="M36.67,13.94L0,104.08h14.14l9.79-23.64h38.08l9.79,23.64h14.14L49.27,13.94h-12.59ZM29.24,67.63l13.73-33.14,13.73,33.14h-27.46Z"/>
      <rect class="cls-1" width="93" height="120"/>
    </g>
    <g>
      <path class="cls-2" d="M132.79,45.38h-1.6c-4.57,0-9.17,1.81-13.66,5.38v-5.82h-12.94v59.23l.14.07c.05.03.09.05.1.06v.21h12.7v-26.29c0-7.54,1.12-12.5,3.43-15.18,2.58-2.99,5.98-4.51,10.1-4.51h.99c3.15,0,6.2,1.06,9.89,3.44l.21.13.15-.19c.33-.44,1.76-5.12,3.33-12.58v-.28l-.14-.08c-4.3-2.39-8.57-3.6-12.69-3.6Z"/>
      <rect class="cls-1" x="93" width="57" height="120"/>
    </g>
    <g>
      <path class="cls-2" d="M205.05,45.25c-.08.08-.17.12-.25.12v6.78c-4.85-5.26-10.68-7.88-17.49-7.88-7.39,0-13.96,2.42-19.71,7.27-6.98,6.57-10.47,14.41-10.47,23.53,0,7.31,2.34,13.92,7.02,19.83,6.33,7.23,13.96,10.84,22.91,10.84,7.23,0,13.14-2.5,17.74-7.51v5.91l.25.12h12.66c.08-.08.17-.12.25-.12v-58.76c-.08-.08-.17-.12-.25-.12h-12.66ZM198.75,88.53c-3.66,3.1-7.39,4.65-11.21,4.65h-1.19c-2.78,0-5.64-.91-8.58-2.74-5.41-4.05-8.11-9.18-8.11-15.38,0-4.05,1.27-7.91,3.81-11.56,3.89-4.37,8.23-6.56,12.99-6.56h.95c2.86,0,5.76.88,8.7,2.62,5.4,3.98,8.11,9.14,8.11,15.5,0,5.17-1.83,9.66-5.48,13.47Z"/>
      <rect class="cls-1" x="150" width="78" height="120"/>
    </g>
    <g>
      <path class="cls-2" d="M240.73,14.09h-.12v90.17h13.21V14.09h-13.09Z"/>
      <rect class="cls-1" x="228" width="39" height="120"/>
    </g>
    <g>
      <path class="cls-2" d="M317.78,51.33c-5.61-4.87-11.51-7.33-17.55-7.33h-1.72c-5.54,0-11.11,2.13-16.56,6.35-7.4,6.66-11.15,14.91-11.17,24.52h0s0,.07,0,.07v.25s0,.08.01.13c0,1.56.15,3.08.35,4.56.04.3.09.59.14.88.53,3.18,1.51,6.18,2.95,9,.11.21.22.42.33.63.54,1.01,1.15,2,1.81,2.96.27.4.46.82.75,1.22.48.59.98,1.11,1.47,1.65,1.03,1.2,2.13,2.37,3.36,3.48.69.53,1.38.93,2.07,1.4.37.26.75.52,1.13.76.51.31,1.02.63,1.53.91.88.49,1.78.92,2.7,1.29.96.4,1.92.71,2.88.98.3.08.59.19.9.26.93.23,1.86.39,2.79.5.09.01.18.02.27.03.77.08,1.54.22,2.31.22h1.72c.68,0,1.36-.15,2.04-.21.15-.02.29-.03.44-.04,2.78-.31,5.54-1.13,8.27-2.47.09-.05.18-.1.28-.14,2.3-1.16,4.57-2.58,6.75-4.47,2.73-2.65,4.62-4.99,5.61-6.98.35-.63.6-1.29.91-1.93l-11.87-5.15c-.8,1.6-1.81,3.16-3.3,4.69-2.97,2.58-5.36,3.89-10.11,3.89-2.77,0-5.1-.64-7.14-1.79-.39-.24-.78-.44-1.16-.72-.69-.49-1.33-1.09-1.94-1.74-.21-.21-.43-.37-.63-.58-.89-1.07-1.7-2.32-2.42-3.77-.13-.41-.39-1.01-.76-1.76-.59-1.6-.89-2.8-1.16-4h43.42c.32,0,.4-.18.4-2v-1.85c0-5.85-1.5-11.49-4.46-16.75-.99-1.99-2.88-4.33-5.61-6.98ZM285.2,67.15c.37-.75.63-1.35.76-1.76,2.93-5.86,7.16-8.6,13.3-8.6,4.75,0,7.14,1.32,10.11,3.89,2.03,2.1,3.4,4.22,4.17,6.46h-28.34Z"/>
      <rect class="cls-1" x="267" width="69" height="120"/>
    </g>
    <g>
      <path class="cls-2" d="M390.38,45.25c-.08.08-.17.12-.25.12v6.78c-4.85-5.26-10.68-7.88-17.49-7.88-7.39,0-13.96,2.42-19.71,7.27-6.98,6.57-10.47,14.41-10.47,23.53,0,7.31,2.34,13.92,7.02,19.83,6.33,7.23,13.96,10.84,22.91,10.84,7.23,0,13.14-2.5,17.74-7.51v5.91l.25.12h12.66c.08-.08.17-.12.25-.12v-58.76c-.08-.08-.17-.12-.25-.12h-12.66ZM384.08,88.53c-3.66,3.1-7.39,4.65-11.21,4.65h-1.19c-2.78,0-5.64-.91-8.58-2.74-5.41-4.05-8.11-9.18-8.11-15.38,0-4.05,1.27-7.91,3.81-11.56,3.89-4.37,8.23-6.56,12.99-6.56h.95c2.86,0,5.76.88,8.7,2.62,5.4,3.98,8.11,9.14,8.11,15.5,0,5.17-1.83,9.66-5.48,13.47Z"/>
      <rect class="cls-1" x="336" width="78" height="120"/>
    </g>
    <g>
      <path class="cls-2" d="M479.75,14.04h-12.66c-.08.08-.17.12-.25.12v37.99c-4.85-5.26-10.68-7.88-17.49-7.88-7.39,0-13.96,2.42-19.71,7.27-6.98,6.57-10.47,14.41-10.47,23.53,0,7.31,2.34,13.92,7.02,19.83,6.32,7.23,13.96,10.84,22.91,10.84,7.23,0,13.14-2.5,17.74-7.51v5.91l.25.12h12.66c.08-.08.17-.12.25-.12V14.16c-.08-.08-.17-.12-.25-.12ZM460.78,88.53c-3.66,3.1-7.39,4.65-11.21,4.65h-1.19c-2.78,0-5.64-.91-8.58-2.74-5.41-4.05-8.11-9.18-8.11-15.38,0-4.05,1.27-7.91,3.81-11.56,3.89-4.37,8.23-6.56,12.99-6.56h.95c2.86,0,5.76.88,8.7,2.62,5.4,3.98,8.11,9.14,8.11,15.5,0,5.17-1.83,9.66-5.48,13.47Z"/>
      <rect class="cls-1" x="414" width="66" height="120"/>
    </g>
    <g>
      <path class="cls-2" d="M137.42,170.38c-3.23,7.05-9.39,10.79-16.19,12.15v-7.35c7.05-2.51,11-7.73,11-17.33v-1.79h7.52v2.25c0,1.4-.08,2.76-.21,4.08,4.89-1.62,7.39-5.18,8.33-9.6h-27.87v-7.26h36.66v1.49c-.17,15.55-10.07,21.79-19.24,23.37Z"/>
      <rect class="cls-1" x="120" y="141" width="45" height="45"/>
    </g>
    <g>
      <path class="cls-2" d="M169.81,182.28v-7.18c12.24-.55,20.43-4.67,23.07-11.3h-27.99v-7.01h37.51v1.1c-.47,14.48-10.36,24.21-32.58,24.38ZM167.05,152.84v-7.22h33.31v7.22h-33.31Z"/>
      <rect class="cls-1" x="165" y="141" width="45" height="45"/>
    </g>
    <g>
      <path class="cls-2" d="M211.72,167.75v-22.47h8.07v22.47h-8.07ZM216.39,182.11v-7.22c13.98-.72,20.69-3.74,20.69-16.48v-13.13h8.2v13.21c0,17.5-10.66,23.41-28.89,23.62Z"/>
      <rect class="cls-1" x="210" y="141" width="45" height="45"/>
    </g>
    <g>
      <path class="cls-2" d="M254.82,165.29v-7.48h36.92v7.48h-36.92Z"/>
      <rect class="cls-1" x="255" y="141" width="45" height="45"/>
    </g>
    <g>
      <path class="cls-2" d="M309.9,164.01v18.78h-8.07v-38.57h8.07v12.11c8.03,1.36,17.5,3.19,24.39,4.89v7.82c-7.05-1.65-17.16-3.69-24.39-5.01ZM320.43,151.73v-6.2h4.8v6.2h-4.8ZM326.59,151.73v-6.2h4.8v6.2h-4.8Z"/>
      <rect class="cls-1" x="300" y="141" width="45" height="45"/>
    </g>
  </g>
</svg>