<?xml version="1.0" encoding="UTF-8"?>
<svg id="_レイヤー_2" data-name="レイヤー 2" xmlns="http://www.w3.org/2000/svg" viewBox="0 0 236.17 240.13">
  <defs>
    <style>
      .cls-1 {
        fill: #006666;
        stroke-width: 0px;
      }
    </style>
  </defs>
  <g id="logo">
    <path id="logo-aralead-05" class="cls-1" d="M192.12,152.58c-15.12,24.8-34.75,47.76-75.7,47.76s-68.76-29.21-72.94-70.47h192.69l-.09-7.46C235.27,50.34,186.56,0,117.64,0,44,0,0,61.46,0,120.87s41.79,119.26,119.26,119.26c49.09,0,85.69-22.96,108.75-68.24l3.31-6.48c3.82-9.15,4.86-18.74,4.86-18.74h-40.45l-3.6,5.91ZM118.04,41.41c34.43,0,59.14,17.47,70.45,49.47H48.66c12.29-32.84,35.59-49.47,69.38-49.47Z"/>
  </g>
</svg>