<?xml version="1.0" encoding="UTF-8"?>
<svg id="_レイヤー_2" data-name="レイヤー 2" xmlns="http://www.w3.org/2000/svg" viewBox="0 0 275.88 245.79">
  <defs>
    <style>
      .cls-1 {
        fill: #026456;
      }

      .cls-1, .cls-2 {
        stroke-width: 0px;
      }

      .cls-2 {
        fill: #3eac7f;
      }
    </style>
  </defs>
  <g id="_レイヤー_1-2" data-name="レイヤー 1">
    <g>
      <path class="cls-2" d="M247.9,245.79c-2.67,0-5.38-.39-8.03-1.18l-110-32.97c-14.8-4.44-23.21-20.03-18.77-34.83,4.44-14.8,20.04-23.2,34.83-18.77l42.35,12.69L113.69,42.01c-7.75-13.37-3.19-30.49,10.18-38.24,13.38-7.75,30.49-3.19,38.24,10.18l110,189.83c5.75,9.93,4.86,22.36-2.25,31.37-5.4,6.83-13.54,10.64-21.96,10.64Z"/>
      <path class="cls-1" d="M27.98,245.79c-8.42,0-16.56-3.81-21.96-10.64-7.11-9-8-21.44-2.25-31.37L113.77,13.96c7.75-13.37,24.87-17.93,38.24-10.18,13.37,7.75,17.93,24.87,10.18,38.24l-74.59,128.72,42.35-12.69c14.81-4.43,30.4,3.97,34.83,18.77,4.44,14.8-3.97,30.4-18.77,34.83l-110,32.97c-2.65.79-5.35,1.18-8.03,1.18Z"/>
    </g>
  </g>
</svg>